Coordinates
version=1
nRows=16
nColumns=22
inDegrees=yes

Units are S.I. units (second, meters, Newtons, ...)
If the header above contains a line with 'inDegrees', this indicates whether rotational values are in degrees (yes) or radians (no).

endheader
time	pelvis_tilt	pelvis_list	pelvis_rotation	pelvis_tx	pelvis_ty	pelvis_tz	hip_flexion_r	hip_adduction_r	hip_rotation_r	knee_angle_r	ankle_angle_r	subtalar_angle_r	hip_flexion_l	hip_adduction_l	hip_rotation_l	knee_angle_l	ankle_angle_l	subtalar_angle_l	lumbar_extension	lumbar_bending	lumbar_rotation
      1.40000000	      4.81569792	     -2.30019002	      8.40024583	     -1.38457407	      0.95349290	      0.05125153	     -6.20877609	      5.38734770	    -10.84248722	     -7.95676787	      9.77354776	      0.20877439	     -2.07162728	     -5.60439664	    -11.62983811	    -16.17402268	     21.25419815	     -4.41356903	    -11.97803089	      4.26873317	     -9.28286443
      1.41000000	      4.81977893	     -2.28764490	      8.37253281	     -1.38445452	      0.95343365	      0.05113088	     -6.11996475	      5.34904825	    -10.88952331	     -8.16174735	      9.92813304	      0.11870597	     -2.06977897	     -5.58261872	    -11.65308383	    -16.21929006	     21.31095733	     -4.45475695	    -11.96844322	      4.27112102	     -9.23330367
      1.42000000	      4.82536276	     -2.27243772	      8.34693285	     -1.38428690	      0.95338348	      0.05101840	     -6.04939452	      5.31515094	    -10.87397901	     -8.34032847	     10.03983953	      0.01717699	     -2.07840951	     -5.55741088	    -11.66459045	    -16.25335125	     21.33965192	     -4.49593172	    -11.96073830	      4.27544928	     -9.21466291
      1.43000000	      4.84082143	     -2.25640833	      8.30849591	     -1.38404113	      0.95334419	      0.05092141	     -5.98967640	      5.28037543	    -10.84904262	     -8.52619160	     10.14308345	     -0.07083359	     -2.11803247	     -5.53182130	    -11.69115377	    -16.26566534	     21.37238803	     -4.52438564	    -11.96183202	      4.28223949	     -9.18930943
      1.44000000	      4.85475249	     -2.23245439	      8.25662387	     -1.38371938	      0.95329689	      0.05083963	     -5.92714738	      5.23555817	    -10.81253335	     -8.72481581	     10.26757426	     -0.16462441	     -2.17452716	     -5.49590632	    -11.73421352	    -16.25976932	     21.40284389	     -4.54927007	    -11.96009061	      4.28413434	     -9.16652121
      1.45000000	      4.86782182	     -2.20199861	      8.19456470	     -1.38332290	      0.95324018	      0.05077830	     -5.85633427	      5.18279510	    -10.76769839	     -8.94935688	     10.40835035	     -0.26528291	     -2.24657842	     -5.45236000	    -11.78836457	    -16.23720343	     21.43685089	     -4.56855984	    -11.95767633	      4.28082170	     -9.14320213
      1.46000000	      4.87898583	     -2.16338307	      8.12188749	     -1.38286338	      0.95316957	      0.05073492	     -5.77031020	      5.11889569	    -10.71521133	     -9.20886990	     10.57551520	     -0.37806049	     -2.33024687	     -5.39928894	    -11.85279000	    -16.20315372	     21.47619182	     -4.58115309	    -11.95540308	      4.27057879	     -9.12286457
      1.47000000	      4.88603783	     -2.11667687	      8.04134394	     -1.38235134	      0.95307979	      0.05070704	     -5.66282176	      5.04349750	    -10.65495947	     -9.50968738	     10.77121745	     -0.51116147	     -2.41846524	     -5.33730569	    -11.92217478	    -16.16470248	     21.51964565	     -4.58488835	    -11.95259302	      4.25613274	     -9.11545429
      1.48000000	      4.88806549	     -2.06208136	      7.95767593	     -1.38179674	      0.95296840	      0.05071179	     -5.52612657	      4.95876210	    -10.59153198	     -9.86455104	     10.99449786	     -0.65937410	     -2.50666313	     -5.26851357	    -11.98972379	    -16.12479642	     21.57831674	     -4.57285925	    -11.94957886	      4.22951164	     -9.11132501
      1.49000000	      4.85979945	     -1.99773301	      7.88077999	     -1.38120794	      0.95279797	      0.05072001	     -5.34079952	      4.86099903	    -10.51810615	    -10.25733637	     11.29016826	     -0.91551852	     -2.55723665	     -5.19083140	    -12.07596396	    -16.09755087	     21.60382940	     -4.54203730	    -11.91424493	      4.19591624	     -9.16069946
      1.50000000	      4.83674098	     -1.93295551	      7.79802199	     -1.38060170	      0.95261685	      0.05077935	     -5.13471323	      4.76459721	    -10.44299179	    -10.70119667	     11.54729243	     -1.12801757	     -2.61182846	     -5.11526973	    -12.13494840	    -16.08118322	     21.68655612	     -4.47292821	    -11.89547325	      4.15815087	     -9.19527204
      1.51000000	      4.82591374	     -1.86208242	      7.70714096	     -1.37997324	      0.95244057	      0.05088487	     -4.92685229	      4.66437149	    -10.35528117	    -11.17555728	     11.75863973	     -1.26361224	     -2.68365586	     -5.03502174	    -12.16110551	    -16.06641623	     21.81686564	     -4.38613292	    -11.90204842	      4.11156339	     -9.21391268
      1.52000000	      4.71874276	     -1.79459681	      7.63109024	     -1.37932508	      0.95209593	      0.05101887	     -4.59312966	      4.56121196	    -10.25484578	    -11.69356919	     12.08684412	     -1.69107368	     -2.61727154	     -4.96334541	    -12.23963484	    -16.11309670	     21.86501509	     -4.15107774	    -11.79425791	      4.06096230	     -9.30840866
      1.53000000	      4.68668728	     -1.70296896	      7.52062285	     -1.37857001	      0.95186197	      0.05121277	     -4.35096504	      4.44178312	    -10.13297724	    -12.20876377	     12.38913618	     -1.81827102	     -2.68094155	     -4.86932065	    -12.34080877	    -16.09981353	     21.97337710	     -4.01105931	    -11.78132020	      3.99081147	     -9.37299196
      1.54000000	      4.58994599	     -1.61889851	      7.42446548	     -1.37782392	      0.95150468	      0.05144841	     -4.02784837	      4.32976819	     -9.99652568	    -12.74138591	     12.65534816	     -2.11788621	     -2.63582874	     -4.78756645	    -12.41138886	    -16.15532957	     22.08451837	     -3.69613282	    -11.70357790	      3.91833574	     -9.45609602
      1.55000000	      4.53968495	     -1.51846522	      7.31048695	     -1.37697597	      0.95121022	      0.05172717	     -3.77284233	      4.20966833	     -9.84957932	    -13.25566682	     12.96510504	     -2.27099490	     -2.66812868	     -4.69409694	    -12.51224050	    -16.18340989	     22.19693942	     -3.47200864	    -11.68494071	      3.83495021	     -9.52709128
